# xmcd
#
# Track frame offsets:
#	150
#	11724
#	24022
#	41381
#	54929
#	68378
#	83014
#	95450
#	110164
#	118727
#	129618
#	142448
#	155723
#	167412
#	181641
#	195380
#	211416
#	225767
#	236427
#	256485
#	268184
#	280611
#	295429
#	308704
#	322326
#
# Disc length: 4534 seconds
#
# Revision: 0
# Processed by: cddbd v1.5.2PL0 Copyright (c) Steve Scherf et al.
# Submitted via: FairStars CD Ripper 1.80
#
DISCID=5911b419
DTITLE=Big Maybelle - The Very Best Of cd2
DYEAR=2016
DGENRE=Soul
TTITLE0=My Country Man
TTITLE1=Way Back Home
TTITLE2=I Can't Give You Anything But Love
TTITLE3=How It Lies
TTITLE4=Ain't No Use
TTITLE5=Everybody's Got A Home But Me
TTITLE6=I'm Gettin' 'Long Alright
TTITLE7=Jim
TTITLE8=A Little Bird Told Me
TTITLE9=Say It Isn't So
TTITLE10=Ramblin' Blues
TTITLE11=I've Got A Feeling
TTITLE12=I Could Make You Care
TTITLE13=Maybelle's Blues
TTITLE14=Rain Down Rain
TTITLE15=I Still Care
TTITLE16=Just Want Your Love
TTITLE17=If I Could Be With You
TTITLE18=Blues, Early Early
TTITLE19=Some Of These Days
TTITLE20=Jinny Mule
TTITLE21=So Long
TTITLE22=What More Can A Woman Do
TTITLE23=You'll Never Know
TTITLE24=Candy (Alt. Ver.)
EXTD=
EXTT0=
EXTT1=
EXTT2=
EXTT3=
EXTT4=
EXTT5=
EXTT6=
EXTT7=
EXTT8=
EXTT9=
EXTT10=
EXTT11=
EXTT12=
EXTT13=
EXTT14=
EXTT15=
EXTT16=
EXTT17=
EXTT18=
EXTT19=
EXTT20=
EXTT21=
EXTT22=
EXTT23=
EXTT24=
PLAYORDER=
